# xmcd
# 
# Track frame offsets:
#     150
#     42035
#     85635
#     99740
#     119720
#     150592
#     167800
#     181552
#     193870
#     206670
#     226477
#     237515
#     253157
#     276470
#     289795
# 
# Disc length: 4437
# 
# Revision: 6
# Processed by: cddbd v1.5.2PL0 Copyright (c) Steve Scherf et al.
# Submitted via: fre:ac v1.0.27
# 
DISCID=d711530f
DTITLE=Dizzy Gillespie - Pleyel 1953
DYEAR=1953
DGENRE=Jazz
TTITLE0=The Champ
TTITLE1=Good Bait
TTITLE2=Oo-sho-be-doo-bee
TTITLE3=They Can´t Take That Away From Me
TTITLE4=School Days
TTITLE5=Swing Low, Sweet Cadillac
TTITLE6=I Can´t Get Started
TTITLE7=Tin Tin Daeo
TTITLE8=On The Sunny Side Of The Street
TTITLE9=Play, Fiddle, Play
TTITLE10=My Man (Mon Homme)
TTITLE11=Lady Be Good
TTITLE12=The Bluest Blues
TTITLE13=Embracable
TTITLE14=Birk´s Works
EXTD=YEAR: 1953
EXTT0=
EXTT1=
EXTT2=
EXTT3=
EXTT4=
EXTT5=
EXTT6=
EXTT7=
EXTT8=
EXTT9=
EXTT10=
EXTT11=
EXTT12=
EXTT13=
EXTT14=
PLAYORDER=
